<svg width="64" height="64" viewBox="0 0 64 64" fill="none" xmlns="http://www.w3.org/2000/svg">
<path d="M32.7578 54.9718C21.7677 55.3174 12.108 46.6781 11.6088 36.0847C11.5077 33.9409 11.4753 30.881 11.6125 28.7339C12.2879 18.1637 20.4264 9.84792 31.4614 9.3789C32.2302 9.37183 32.9981 9.36418 33.765 9.42714C44.2922 10.2915 52.2713 18.9604 52.5264 29.0915C52.5828 31.3324 52.6456 34.1777 52.4791 36.3814C51.7333 46.2567 43.0802 54.7095 32.7578 54.9718ZM31.6655 10.7752C30.6322 10.8402 29.6153 10.9176 28.5962 11.1066C20.1366 12.6754 13.737 19.8289 13.1062 28.144C12.7946 32.2513 13.8676 36.3064 16.0852 39.8128C19.7473 45.6032 25.5983 48.6933 32.5456 48.6695C44.9549 48.1717 53.5699 36.2242 50.471 24.6931C48.3076 16.6428 40.3255 10.4613 31.6655 10.7752ZM13.0973 37.037C13.2406 38.109 14.0413 41.9083 14.8411 42.7028C14.7392 39.868 14.7074 40.8039 13.7391 38.6405C13.517 38.1442 13.3492 37.4826 13.0973 37.037ZM50.952 37.1567C50.7119 37.8607 50.4407 38.5554 50.0585 39.2002C49.8684 39.521 49.5777 39.8133 49.4396 40.1584C49.3353 40.4194 49.2566 42.3832 49.3394 42.6223C49.7954 41.9977 51.1034 37.9902 50.952 37.1567ZM47.9203 42.444L47.8854 42.4784C46.2742 44.0811 45.4764 45.3176 43.2817 46.604C43.2593 47.5523 43.178 49.053 43.2752 49.9786C44.5744 48.9499 47.6133 46.4197 47.7992 44.6573C47.8333 44.3337 47.9799 42.6351 47.9203 42.444ZM16.2138 42.4663C16.224 43.2657 16.1929 44.6198 16.4508 45.3688C16.6478 45.9409 19.9737 49.7146 20.5947 49.7297C20.5323 48.6867 20.5782 47.6385 20.5969 46.595C19.4724 45.7265 18.4156 44.879 17.4198 43.8618C17.0364 43.4702 16.5655 42.7715 16.2138 42.4663ZM22.0385 47.4246C22.0327 48.5307 22.09 49.6526 22.038 50.756C24.8928 52.5306 27.992 53.3983 31.3681 53.5549C31.4291 52.399 31.3508 51.2388 31.4082 50.0832C28.3148 50.0013 24.6523 49.1467 22.0385 47.4246ZM41.7739 47.6162C39.4532 48.7294 37.4733 49.5557 34.8342 49.8936C34.1749 49.978 33.5133 49.9759 32.8567 50.0494C32.8459 50.4504 32.793 53.4194 32.8778 53.5507L32.8979 53.5552C36.0049 53.4105 39.2182 52.5242 41.8377 50.8649C41.8028 50.3013 41.8877 47.9289 41.7937 47.6333L41.7739 47.6162Z" fill="#F4F3F3"/>
<path d="M21.6667 19.6132C18.4386 23.044 16.907 27.5768 17.775 32.2131C18.9772 38.634 24.5456 43.8241 31.3224 44.1222C31.6751 44.1376 32.0488 44.1055 32.3974 44.1583C32.9763 44.2458 33.1802 44.8911 32.8306 45.3146C32.4257 45.8052 31.3201 45.5457 30.7749 45.5054C22.9221 44.9244 16.7289 38.4102 16.1342 30.8575C15.554 23.4889 20.5033 16.2536 27.926 14.3544C29.1265 14.0472 30.3183 13.9047 31.5526 13.8148C32.0911 13.7618 32.6699 13.8159 33.2087 13.8553C46.1298 14.8003 52.7387 29.7536 44.2685 39.6955C43.9175 40.1075 43.2532 40.9761 42.6836 41.0121C41.5483 41.084 41.9877 39.9926 42.5618 39.4217C48.1302 33.885 47.88 24.7003 42.2217 19.3212C36.3527 13.7419 27.3721 13.9249 21.6667 19.6132Z" fill="#F4F3F3"/>
<path d="M31.4483 21.3495C31.389 20.6745 31.1793 19.7821 31.9372 19.4281C33.1173 19.2675 32.8263 20.6551 32.8582 21.3849C34.6535 21.6072 36.1243 22.5621 37.3227 23.8397C37.9135 24.4696 38.1296 25.6261 37.1098 25.5256C36.6199 25.4773 36.3212 24.9242 36.0311 24.5904C34.2455 22.5358 31.2656 22.1278 29.1322 23.9071C22.9711 29.0458 29.2106 40.4938 35.6733 34.9553C36.0743 34.6014 36.7307 33.5813 37.0995 33.4865C37.9241 33.2747 38.2409 34.1091 37.7328 34.8171C36.495 36.5422 34.9704 37.3795 32.8619 37.7415C32.8573 38.1173 32.9393 39.27 32.6648 39.5369C32.3924 39.8016 31.8422 39.8036 31.5799 39.5233C31.2713 39.1936 31.4033 38.1992 31.4199 37.7786C23.4222 36.6059 22.8834 23.0013 31.4483 21.3495Z" fill="#F4F3F3"/>
<path d="M42.8274 29.9323C41.2664 29.9761 41.2841 28.5288 42.5799 28.3955C43.9191 28.4863 44.1816 29.6998 42.8274 29.9323Z" fill="#F4F3F3"/>
<path d="M21.8495 29.8964C20.432 30.1298 19.947 28.7141 21.2121 28.4545C22.9592 28.3725 22.8613 29.6216 21.8495 29.8964Z" fill="#F4F3F3"/>
</svg>
