<svg width="51" height="60" viewBox="0 0 51 60" fill="none" xmlns="http://www.w3.org/2000/svg">
<path d="M25.5001 0L12.6045 6.90595L21.3473 11.4357L25.5001 9.35645L29.7258 11.5842L38.8329 7.27724L25.5001 0Z" fill="white"/>
<path d="M0.0732422 30.223V13.5893L7.86891 9.65366L24.8445 18.8616L16.7574 22.723L7.86891 17.9705V26.8072L0.0732422 30.223Z" fill="white"/>
<path d="M38.978 53.2426L25.4995 60L12.6768 53.0198L21.1281 49.2327L25.6452 51.1633L30.8181 48.9356L38.978 53.2426Z" fill="white"/>
<path d="M51 46.5591V29.7769L43.4229 33.4155L42.9858 42.1036L34.243 37.5739L26.083 41.361L43.4229 50.6432L51 46.5591Z" fill="white"/>
<path d="M6.5571 50.3469L15.5185 46.04L9.76279 42.5499L50.9268 23.4657V13.4409L44.224 10.0994L35.0441 14.332L41.0183 17.9707L0.145713 37.0548L0 47.0054L6.5571 50.3469Z" fill="white"/>
</svg>
