<svg width="251" height="110" viewBox="0 0 251 110" fill="none" xmlns="http://www.w3.org/2000/svg">
<path d="M121.045 15.1752H121.045L121.031 23.0782C122.548 23.0953 124.24 23.0988 125.875 22.9111C127.892 22.6797 129.646 22.1733 130.811 21.194C131.903 20.2499 132.434 19.0853 132.55 17.59C132.67 16.026 132.439 14.6369 131.556 13.6167L121.045 15.1752ZM121.045 15.1752L121.045 15.1659C121.035 13.8854 121.033 12.6049 121.039 11.3244C121.072 11.3241 121.105 11.3237 121.138 11.3233C122.518 11.3081 123.858 11.2933 125.193 11.3818L125.259 10.3839M121.045 15.1752L125.259 10.3839M125.259 10.3839L125.193 11.3818C126.383 11.4605 127.636 11.6124 128.776 11.9606M125.259 10.3839L128.776 11.9606M128.776 11.9606C129.915 12.3086 130.878 12.8337 131.556 13.6167L128.776 11.9606Z" stroke="#F4F3F3" stroke-width="2"/>
<path d="M121.586 29.51L121.586 29.51C121.412 29.5152 121.238 29.5197 121.064 29.5235L121.058 42.5988C124.8 42.6068 128.241 42.5458 131.301 40.7372C132.76 39.8037 133.839 38.6449 134.18 37.1299C134.477 35.8112 134.312 34.3824 133.633 33.3272L133.633 33.3272C132.459 31.5018 130.146 30.5094 127.786 30.0085C127.278 29.9054 126.768 29.8175 126.255 29.7449L121.586 29.51ZM121.586 29.51L121.595 29.5096M121.586 29.51L121.595 29.5096M121.595 29.5096C122.114 29.489 122.633 29.484 123.153 29.4946M121.595 29.5096L123.153 29.4946M123.153 29.4946C123.672 29.5052 124.19 29.5314 124.708 29.5731M123.153 29.4946L124.708 29.5731M124.708 29.5731C125.225 29.6149 125.741 29.6721 126.255 29.7448L124.708 29.5731Z" stroke="#F4F3F3" stroke-width="2"/>
<path d="M118.559 1.01915C118.557 1.22557 118.556 1.4314 118.554 1.63681C118.545 2.62607 118.536 3.60547 118.545 4.59197L118.553 5.57726L117.568 5.60049C115.839 5.64128 114.11 5.62919 112.399 5.61562C112.343 5.61518 112.288 5.61474 112.232 5.6143C110.9 5.6037 109.579 5.59318 108.261 5.60608L108.257 6.14421C109.899 6.31454 111.491 6.93262 112.76 8.20321L112.76 8.20321C113.614 9.0581 114.268 10.1908 114.483 11.4432L114.483 11.4433C114.574 11.9723 114.588 12.5609 114.584 13.0911C114.582 13.3798 114.575 13.6202 114.57 13.8454C114.563 14.0941 114.558 14.3241 114.558 14.58L114.558 14.5807L114.564 20.63L114.564 20.631L114.603 40.4953L114.603 40.5052H114.603C114.589 42.2541 114.124 44.1803 112.701 45.5868C111.446 46.8273 109.826 47.2172 108.36 47.3699C108.36 47.5348 108.36 47.6997 108.361 47.8646C109.351 47.8615 110.345 47.8553 111.341 47.849C113.426 47.8358 115.519 47.8226 117.599 47.8392L118.599 47.8471L118.591 48.8469C118.581 50.2015 118.582 51.5561 118.594 52.9108C118.78 52.9115 118.966 52.9115 119.152 52.9107C119.18 51.5641 119.181 50.2174 119.155 48.8705L119.137 47.925L120.079 47.854C120.648 47.8112 121.271 47.8294 121.819 47.8453C122.042 47.8518 122.253 47.858 122.442 47.8595C122.443 47.8595 122.445 47.8595 122.446 47.8595L126.205 47.8633L127.201 47.8643L127.204 48.8593L127.22 52.91C127.423 52.9105 127.625 52.9103 127.828 52.9096C127.827 52.7421 127.826 52.5742 127.826 52.4059C127.821 51.2234 127.817 50.0257 127.842 48.8374L127.86 47.9475L128.746 47.8628L129.405 47.7999L129.406 47.7998C133.592 47.4041 137.899 46.2016 140.489 43.087L140.493 43.0829C140.544 43.0224 140.594 42.9612 140.643 42.8995C140.692 42.8379 140.741 42.7757 140.788 42.7129C140.836 42.6499 140.883 42.5863 140.93 42.5221C140.976 42.4582 141.021 42.3937 141.066 42.3286L141.066 42.3283C141.111 42.2634 141.154 42.1978 141.197 42.1318C141.24 42.0654 141.282 41.9986 141.324 41.9314L141.324 41.9308C141.365 41.8637 141.406 41.7961 141.446 41.7279C141.485 41.6596 141.524 41.5909 141.562 41.5217L141.562 41.5214C141.6 41.4523 141.637 41.3826 141.674 41.3125C141.71 41.2425 141.745 41.172 141.78 41.101L141.78 41.1002C141.815 41.0294 141.848 40.9582 141.881 40.8866C141.914 40.8146 141.946 40.7423 141.977 40.6696L141.977 40.6694C142.008 40.5969 142.038 40.5241 142.067 40.4508C142.096 40.3772 142.125 40.3034 142.152 40.2293C142.179 40.1554 142.206 40.0811 142.231 40.0066L142.232 40.006C142.257 39.9313 142.282 39.8564 142.306 39.7811L142.306 39.7809C142.329 39.7058 142.352 39.6305 142.374 39.5548L142.374 39.5542C142.396 39.4783 142.417 39.4021 142.437 39.3256C142.457 39.2494 142.476 39.1728 142.494 39.096L142.494 39.0953C142.512 39.0187 142.529 38.9419 142.545 38.8649L142.545 38.8642C142.562 38.7871 142.577 38.7099 142.591 38.6325L142.591 38.6319C142.605 38.5545 142.619 38.4768 142.631 38.399L142.631 38.3982C142.643 38.3205 142.655 38.2425 142.665 38.1644L142.665 38.1638C142.676 38.0856 142.685 38.0074 142.694 37.9291C142.694 37.9291 142.694 37.9291 142.694 37.929L143.688 38.0369C143.697 37.9501 143.706 37.8634 143.713 37.7765C143.72 37.6896 143.726 37.6026 143.732 37.5155L118.559 1.01915ZM118.559 1.01915L119.142 1.01211M118.559 1.01915L119.142 1.01211M142.176 42.455C142.221 42.3808 142.266 42.3059 142.31 42.2305C142.354 42.1552 142.397 42.0792 142.439 42.0028C142.481 41.9264 142.522 41.8495 142.562 41.7721C142.602 41.6946 142.641 41.6167 142.679 41.5382C142.717 41.4599 142.754 41.381 142.791 41.3017C142.827 41.2224 142.862 41.1426 142.896 41.0624C142.931 40.9822 142.964 40.9017 142.996 40.8206C143.028 40.7396 143.06 40.6582 143.09 40.5765C143.12 40.4947 143.149 40.4126 143.178 40.3301C143.206 40.2476 143.233 40.1647 143.259 40.0815C143.286 39.9984 143.311 39.9149 143.335 39.8311C143.359 39.7473 143.382 39.6633 143.404 39.5789C143.426 39.4946 143.447 39.41 143.467 39.3251C143.487 39.2402 143.506 39.1551 143.524 39.0697C143.542 38.9844 143.559 38.8989 143.574 38.8132L142.176 42.455ZM142.176 42.455C142.13 42.5293 142.084 42.603 142.036 42.6762L142.176 42.455ZM119.142 1.01211C119.142 1.7382 119.136 2.46442 119.13 3.19553C119.126 3.66231 119.122 4.13109 119.12 4.60312L119.115 5.62112L120.133 5.60791C122.16 5.58161 124.187 5.57497 126.214 5.58797L127.202 5.59431L127.22 4.60589C127.24 3.51476 127.235 2.41624 127.23 1.33151C127.229 1.22772 127.229 1.12406 127.228 1.02055C127.406 1.02087 127.584 1.0223 127.765 1.02404L127.776 4.69894L127.779 5.56373L128.635 5.68592C130.546 5.95874 132.384 6.30779 134.126 6.94566C136.753 7.9075 139.115 9.52155 140.215 11.921C141.107 13.8659 141.125 16.3825 140.365 18.4218C139.121 21.7582 136.026 23.381 132.566 24.9671L130.571 25.8817L132.57 26.7871C133.143 27.0464 133.788 27.2625 134.366 27.4558C134.611 27.5378 134.844 27.6157 135.053 27.691L135.053 27.691C136.663 28.2694 138.153 29.0406 139.441 30.0913C141.344 31.6438 142.485 33.6314 142.712 36.0393C142.719 36.117 142.725 36.1947 142.73 36.2726C142.73 36.2726 142.73 36.2726 142.73 36.2726L143.728 36.2086M119.142 1.01211L143.744 37.2543C143.747 37.1672 143.749 37.08 143.75 36.9928M143.728 36.2086C143.734 36.2956 143.738 36.3827 143.742 36.4698C143.745 36.557 143.748 36.6441 143.749 36.7312C143.75 36.8184 143.75 36.9056 143.75 36.9928M143.728 36.2086C143.723 36.1216 143.716 36.0346 143.708 35.9478L143.728 36.2086ZM143.75 36.9928L142.75 36.9827C142.75 36.9829 142.75 36.9831 142.75 36.9834L143.75 36.9928ZM143.656 38.2965C143.645 38.3829 143.632 38.4692 143.619 38.5553L143.656 38.2965Z" stroke="#F4F3F3" stroke-width="2"/>
<path d="M3.384 100.911V75.7111H7.236L18.252 94.1071H16.236L27.072 75.7111H30.924L30.96 100.911H26.532L26.496 82.6591H27.432L18.216 98.0311H16.128L6.768 82.6591H7.848V100.911H3.384ZM49.5748 101.271C47.6068 101.271 45.7948 100.947 44.1388 100.299C42.4828 99.6511 41.0428 98.7511 39.8188 97.5991C38.5948 96.4231 37.6468 95.0551 36.9748 93.4951C36.3028 91.9111 35.9668 90.1831 35.9668 88.3111C35.9668 86.4391 36.3028 84.7231 36.9748 83.1631C37.6468 81.5791 38.5948 80.2111 39.8188 79.0591C41.0428 77.8831 42.4828 76.9711 44.1388 76.3231C45.7948 75.6751 47.5948 75.3511 49.5388 75.3511C51.5068 75.3511 53.3068 75.6751 54.9388 76.3231C56.5948 76.9711 58.0348 77.8831 59.2588 79.0591C60.4828 80.2111 61.4308 81.5791 62.1028 83.1631C62.7748 84.7231 63.1108 86.4391 63.1108 88.3111C63.1108 90.1831 62.7748 91.9111 62.1028 93.4951C61.4308 95.0791 60.4828 96.4471 59.2588 97.5991C58.0348 98.7511 56.5948 99.6511 54.9388 100.299C53.3068 100.947 51.5188 101.271 49.5748 101.271ZM49.5388 97.1671C50.8108 97.1671 51.9868 96.9511 53.0668 96.5191C54.1468 96.0871 55.0828 95.4751 55.8748 94.6831C56.6668 93.8671 57.2788 92.9311 57.7108 91.8751C58.1668 90.7951 58.3948 89.6071 58.3948 88.3111C58.3948 87.0151 58.1668 85.8391 57.7108 84.7831C57.2788 83.7031 56.6668 82.7671 55.8748 81.9751C55.0828 81.1591 54.1468 80.5351 53.0668 80.1031C51.9868 79.6711 50.8108 79.4551 49.5388 79.4551C48.2668 79.4551 47.0908 79.6711 46.0108 80.1031C44.9548 80.5351 44.0188 81.1591 43.2028 81.9751C42.4108 82.7671 41.7868 83.7031 41.3308 84.7831C40.8988 85.8391 40.6828 87.0151 40.6828 88.3111C40.6828 89.5831 40.8988 90.7591 41.3308 91.8391C41.7868 92.9191 42.4108 93.8671 43.2028 94.6831C43.9948 95.4751 44.9308 96.0871 46.0108 96.5191C47.0908 96.9511 48.2668 97.1671 49.5388 97.1671ZM79.8795 101.271C77.9115 101.271 76.0995 100.947 74.4435 100.299C72.7875 99.6511 71.3475 98.7511 70.1235 97.5991C68.8995 96.4231 67.9515 95.0551 67.2795 93.4951C66.6075 91.9111 66.2715 90.1831 66.2715 88.3111C66.2715 86.4391 66.6075 84.7231 67.2795 83.1631C67.9515 81.5791 68.8995 80.2111 70.1235 79.0591C71.3475 77.8831 72.7875 76.9711 74.4435 76.3231C76.0995 75.6751 77.8995 75.3511 79.8435 75.3511C81.8115 75.3511 83.6115 75.6751 85.2435 76.3231C86.8995 76.9711 88.3395 77.8831 89.5635 79.0591C90.7875 80.2111 91.7355 81.5791 92.4075 83.1631C93.0795 84.7231 93.4155 86.4391 93.4155 88.3111C93.4155 90.1831 93.0795 91.9111 92.4075 93.4951C91.7355 95.0791 90.7875 96.4471 89.5635 97.5991C88.3395 98.7511 86.8995 99.6511 85.2435 100.299C83.6115 100.947 81.8235 101.271 79.8795 101.271ZM79.8435 97.1671C81.1155 97.1671 82.2915 96.9511 83.3715 96.5191C84.4515 96.0871 85.3875 95.4751 86.1795 94.6831C86.9715 93.8671 87.5835 92.9311 88.0155 91.8751C88.4715 90.7951 88.6995 89.6071 88.6995 88.3111C88.6995 87.0151 88.4715 85.8391 88.0155 84.7831C87.5835 83.7031 86.9715 82.7671 86.1795 81.9751C85.3875 81.1591 84.4515 80.5351 83.3715 80.1031C82.2915 79.6711 81.1155 79.4551 79.8435 79.4551C78.5715 79.4551 77.3955 79.6711 76.3155 80.1031C75.2595 80.5351 74.3235 81.1591 73.5075 81.9751C72.7155 82.7671 72.0915 83.7031 71.6355 84.7831C71.2035 85.8391 70.9875 87.0151 70.9875 88.3111C70.9875 89.5831 71.2035 90.7591 71.6355 91.8391C72.0915 92.9191 72.7155 93.8671 73.5075 94.6831C74.2995 95.4751 75.2355 96.0871 76.3155 96.5191C77.3955 96.9511 78.5715 97.1671 79.8435 97.1671ZM98.3762 100.911V75.7111H102.228L118.032 95.1151H116.124V75.7111H120.768V100.911H116.916L101.112 81.5071H103.02V100.911H98.3762ZM139.185 101.271C137.265 101.271 135.477 100.959 133.821 100.335C132.189 99.6871 130.761 98.7871 129.537 97.6351C128.337 96.4591 127.401 95.0791 126.729 93.4951C126.057 91.9111 125.721 90.1831 125.721 88.3111C125.721 86.4391 126.057 84.7111 126.729 83.1271C127.401 81.5431 128.349 80.1751 129.573 79.0231C130.797 77.8471 132.225 76.9471 133.857 76.3231C135.489 75.6751 137.277 75.3511 139.221 75.3511C141.285 75.3511 143.169 75.7111 144.873 76.4311C146.577 77.1271 148.017 78.1711 149.193 79.5631L146.169 82.4071C145.257 81.4231 144.237 80.6911 143.109 80.2111C141.981 79.7071 140.757 79.4551 139.437 79.4551C138.117 79.4551 136.905 79.6711 135.801 80.1031C134.721 80.5351 133.773 81.1471 132.957 81.9391C132.165 82.7311 131.541 83.6671 131.085 84.7471C130.653 85.8271 130.437 87.0151 130.437 88.3111C130.437 89.6071 130.653 90.7951 131.085 91.8751C131.541 92.9551 132.165 93.8911 132.957 94.6831C133.773 95.4751 134.721 96.0871 135.801 96.5191C136.905 96.9511 138.117 97.1671 139.437 97.1671C140.757 97.1671 141.981 96.9271 143.109 96.4471C144.237 95.9431 145.257 95.1871 146.169 94.1791L149.193 97.0591C148.017 98.4271 146.577 99.4711 144.873 100.191C143.169 100.911 141.273 101.271 139.185 101.271ZM153.677 100.911V75.7111H158.357V96.9511H171.533V100.911H153.677ZM171.699 100.911L183.039 75.7111H187.647L199.023 100.911H194.127L184.371 78.1951H186.243L176.523 100.911H171.699ZM176.919 95.0791L178.179 91.4071H191.787L193.047 95.0791H176.919ZM210.04 101.271C208.072 101.271 206.188 100.995 204.388 100.443C202.588 99.8671 201.16 99.1351 200.104 98.2471L201.724 94.6111C202.732 95.4031 203.98 96.0631 205.468 96.5911C206.956 97.1191 208.48 97.3831 210.04 97.3831C211.36 97.3831 212.428 97.2391 213.244 96.9511C214.06 96.6631 214.66 96.2791 215.044 95.7991C215.428 95.2951 215.62 94.7311 215.62 94.1071C215.62 93.3391 215.344 92.7271 214.792 92.2711C214.24 91.7911 213.52 91.4191 212.632 91.1551C211.768 90.8671 210.796 90.6031 209.716 90.3631C208.66 90.1231 207.592 89.8471 206.512 89.5351C205.456 89.1991 204.484 88.7791 203.596 88.2751C202.732 87.7471 202.024 87.0511 201.472 86.1871C200.92 85.3231 200.644 84.2191 200.644 82.8751C200.644 81.5071 201.004 80.2591 201.724 79.1311C202.468 77.9791 203.584 77.0671 205.072 76.3951C206.584 75.6991 208.492 75.3511 210.796 75.3511C212.308 75.3511 213.808 75.5431 215.296 75.9271C216.784 76.3111 218.08 76.8631 219.184 77.5831L217.708 81.2191C216.58 80.5471 215.416 80.0551 214.216 79.7431C213.016 79.4071 211.864 79.2391 210.76 79.2391C209.464 79.2391 208.408 79.3951 207.592 79.7071C206.8 80.0191 206.212 80.4271 205.828 80.9311C205.468 81.4351 205.288 82.0111 205.288 82.6591C205.288 83.4271 205.552 84.0511 206.08 84.5311C206.632 84.9871 207.34 85.3471 208.204 85.6111C209.092 85.8751 210.076 86.1391 211.156 86.4031C212.236 86.6431 213.304 86.9191 214.36 87.2311C215.44 87.5431 216.412 87.9511 217.276 88.4551C218.164 88.9591 218.872 89.6431 219.4 90.5071C219.952 91.3711 220.228 92.4631 220.228 93.7831C220.228 95.1271 219.856 96.3751 219.112 97.5271C218.392 98.6551 217.276 99.5671 215.764 100.263C214.252 100.935 212.344 101.271 210.04 101.271ZM242.58 75.7111H247.26V100.911H242.58V75.7111ZM229.548 100.911H224.868V75.7111H229.548V100.911ZM242.94 90.1111H229.152V86.1151H242.94V90.1111Z" fill="#F4F3F3"/>
</svg>
